# xmcd
#
# Track frame offsets: 
#        150
#        12378
#        29031
#        41266
#        56227
#        76885
#        88701
#        99042
#        111045
#        130476
#        145226
#        163680
#        178821
#        188571
#        205068
#        218691
#        236746
#        250795
#        263275
#        283847
#        296010
#        308455
#
# Disc length: 4243 seconds
#
# Revision: 0
# Processed by: cddbd v1.5.2PL0 Copyright (c) Steve Scherf et al.
# Submitted via: ExactAudioCopyFreeDBPlugin 1.0
#
DISCID=31109116
DTITLE=Karabina - Karabina-live CD 1
DYEAR=1995
DGENRE=
TTITLE0=Starý šerif
TTITLE1=Letokruhy
TTITLE2=Nejezdi dál
TTITLE3=Merlin song
TTITLE4=Stín z tvých očí
TTITLE5=Předpověď počasí
TTITLE6=Poslední dopis
TTITLE7=Rychlé šípy
TTITLE8=Černej Boby
TTITLE9=Pasát
TTITLE10=Ročník 47
TTITLE11=Gabriela
TTITLE12=Počasí
TTITLE13=Břehy mé duše
TTITLE14=Poslední zem
TTITLE15=Zvláštní znamení woodcraf
TTITLE16=Loudavý návraty
TTITLE17=Dřevěné zpívání
TTITLE18=Flám
TTITLE19=Jedu nocí
TTITLE20=Make Love Cosa Nostra
TTITLE21=Poslední píseň
EXTD=
EXTT0=
EXTT1=
EXTT2=
EXTT3=
EXTT4=
EXTT5=
EXTT6=
EXTT7=
EXTT8=
EXTT9=
EXTT10=
EXTT11=
EXTT12=
EXTT13=
EXTT14=
EXTT15=
EXTT16=
EXTT17=
EXTT18=
EXTT19=
EXTT20=
EXTT21=
PLAYORDER=
